<svg width="40" height="40" viewBox="0 0 40 40" fill="none" xmlns="http://www.w3.org/2000/svg">
<mask id="mask0_258_246" style="mask-type:alpha" maskUnits="userSpaceOnUse" x="0" y="0" width="40" height="40">
<rect width="40" height="40" fill="#D9D9D9"/>
</mask>
<g mask="url(#mask0_258_246)">
<path d="M20 26.1667C22.5925 23.8147 24.2591 22.1643 25 21.2154C25.7408 20.2663 26.1112 19.3153 26.1112 18.3625C26.1112 17.4356 25.7801 16.6435 25.1179 15.9863C24.4559 15.3288 23.6666 15 22.75 15C22.2036 15 21.6873 15.1088 21.2012 15.3263C20.7151 15.544 20.3147 15.8426 20 16.2221C19.6933 15.8401 19.2973 15.541 18.812 15.3246C18.3265 15.1082 17.8027 15 17.2408 15C16.3211 15 15.5325 15.331 14.875 15.9929C14.2175 16.6551 13.8887 17.4446 13.8887 18.3613C13.8887 18.8335 13.9529 19.276 14.0812 19.6888C14.2098 20.1015 14.4923 20.5853 14.9287 21.14C15.3651 21.6947 15.983 22.3661 16.7825 23.1542C17.5822 23.9422 18.6547 24.9464 20 26.1667ZM20 36.6388C16.1202 35.6665 12.9282 33.4235 10.4237 29.9096C7.91899 26.3957 6.66663 22.5276 6.66663 18.3054V8.30542L20 3.30542L33.3333 8.30542V18.3054C33.3333 22.5276 32.0809 26.3957 29.5762 29.9096C27.0718 33.4235 23.8797 35.6665 20 36.6388Z" fill="white"/>
</g>
</svg>
