<svg width="34" height="34" viewBox="0 0 34 34" fill="none" xmlns="http://www.w3.org/2000/svg">
<path d="M16.6667 33.3333C14.3611 33.3333 12.1944 32.8958 10.1667 32.0208C8.13889 31.1458 6.375 29.9583 4.875 28.4583C3.375 26.9583 2.1875 25.1944 1.3125 23.1667C0.4375 21.1389 0 18.9722 0 16.6667C0 14.3611 0.4375 12.1944 1.3125 10.1667C2.1875 8.13889 3.375 6.375 4.875 4.875C6.375 3.375 8.13889 2.1875 10.1667 1.3125C12.1944 0.4375 14.3611 0 16.6667 0C18.9722 0 21.1389 0.4375 23.1667 1.3125C25.1944 2.1875 26.9583 3.375 28.4583 4.875C29.9583 6.375 31.1458 8.13889 32.0208 10.1667C32.8958 12.1944 33.3333 14.3611 33.3333 16.6667C33.3333 18.9722 32.8958 21.1389 32.0208 23.1667C31.1458 25.1944 29.9583 26.9583 28.4583 28.4583C26.9583 29.9583 25.1944 31.1458 23.1667 32.0208C21.1389 32.8958 18.9722 33.3333 16.6667 33.3333ZM16.6667 30.5554C20.5439 30.5554 23.8281 29.21 26.5192 26.5192C29.21 23.8281 30.5554 20.5439 30.5554 16.6667C30.5554 12.7894 29.21 9.50528 26.5192 6.81417C23.8281 4.12333 20.5439 2.77792 16.6667 2.77792C12.7894 2.77792 9.50528 4.12333 6.81417 6.81417C4.12333 9.50528 2.77792 12.7894 2.77792 16.6667C2.77792 20.5439 4.12333 23.8281 6.81417 26.5192C9.50528 29.21 12.7894 30.5554 16.6667 30.5554ZM16.6667 26.6667C13.8889 26.6667 11.5278 25.6944 9.58333 23.75C7.63889 21.8056 6.66667 19.4444 6.66667 16.6667C6.66667 13.8889 7.63889 11.5278 9.58333 9.58333C11.5278 7.63889 13.8889 6.66667 16.6667 6.66667C19.4444 6.66667 21.8056 7.63889 23.75 9.58333C25.6944 11.5278 26.6667 13.8889 26.6667 16.6667C26.6667 19.4444 25.6944 21.8056 23.75 23.75C21.8056 25.6944 19.4444 26.6667 16.6667 26.6667ZM16.6667 23.8888C18.6667 23.8888 20.3704 23.1851 21.7779 21.7779C23.1851 20.3704 23.8888 18.6667 23.8888 16.6667C23.8888 14.6667 23.1851 12.9629 21.7779 11.5554C20.3704 10.1482 18.6667 9.44458 16.6667 9.44458C14.6667 9.44458 12.9629 10.1482 11.5554 11.5554C10.1482 12.9629 9.44458 14.6667 9.44458 16.6667C9.44458 18.6667 10.1482 20.3704 11.5554 21.7779C12.9629 23.1851 14.6667 23.8888 16.6667 23.8888ZM16.6667 20C15.75 20 14.9653 19.6736 14.3125 19.0208C13.6597 18.3681 13.3333 17.5833 13.3333 16.6667C13.3333 15.75 13.6597 14.9653 14.3125 14.3125C14.9653 13.6597 15.75 13.3333 16.6667 13.3333C17.5833 13.3333 18.3681 13.6597 19.0208 14.3125C19.6736 14.9653 20 15.75 20 16.6667C20 17.5833 19.6736 18.3681 19.0208 19.0208C18.3681 19.6736 17.5833 20 16.6667 20Z" fill="white"/>
</svg>
